<?xml version="1.0" encoding="iso-8859-1"?>
<!-- Generator: Adobe Illustrator 27.1.1, SVG Export Plug-In . SVG Version: 6.00 Build 0)  -->
<svg version="1.1" id="Layer_1" xmlns="http://www.w3.org/2000/svg" xmlns:xlink="http://www.w3.org/1999/xlink" x="0px" y="0px"
	 width="1920px" height="1080px" viewBox="0 0 1920 1080" enable-background="new 0 0 1920 1080" xml:space="preserve">
<rect width="1920" height="1080"/>
<g>
	<g>
		<path fill="#4FA86A" d="M737.946,516.156c12.066,0,22.025-9.96,22.025-22.217c0-12.066-9.959-22.216-22.025-22.216h-76.225
			c-12.257,0-22.216,10.15-22.216,22.216c0,12.257,9.959,22.217,22.216,22.217h14.747v68.755c0,13.023,10.342,23.365,23.174,23.365
			c12.832,0,23.365-10.342,23.365-23.365v-68.755H737.946z"/>
		<path fill="#4FA86A" d="M1002.762,495.089c0-12.832-10.342-23.365-23.174-23.365c-12.832,0-23.365,10.533-23.365,23.365V522.1
			l-36.389-42.333c-4.788-5.362-11.3-8.044-17.812-8.044c-12.832,0-23.174,11.108-23.174,23.365v89.823
			c0,13.023,10.342,23.365,23.174,23.365s23.365-10.342,23.365-23.365v-27.13l36.58,42.451c4.597,5.362,11.109,8.044,17.62,8.044
			c12.832,0,23.365-10.917,23.365-23.174L1002.762,495.089z"/>
		<path fill="#4FA86A" d="M837.48,471.723c-6.512,0-13.023,2.681-17.812,8.044l-77.374,90.014c-3.83,4.597-5.745,9.959-5.745,15.322
			c0,12.257,10.533,23.174,23.365,23.174c6.511,0,13.023-2.681,17.62-8.044l36.58-42.451v27.13
			c0,13.023,10.533,23.365,23.365,23.365c12.832,0,23.174-10.342,23.174-23.365v-89.823
			C860.654,482.831,850.312,471.723,837.48,471.723z"/>
		<path fill="#4FA86A" d="M1212.219,471.724c-37.708,0-68.277,30.568-68.277,68.277c0,37.708,30.569,68.277,68.277,68.277
			c37.708,0,68.276-30.569,68.276-68.277C1280.495,502.292,1249.927,471.724,1212.219,471.724z M1212.219,562.12
			c-12.217,0-22.12-9.903-22.12-22.12c0-12.217,9.903-22.12,22.12-22.12c12.217,0,22.12,9.903,22.12,22.12
			C1234.339,552.217,1224.435,562.12,1212.219,562.12z"/>
		<path fill="#4FA86A" d="M1111.479,528.317c-12.832,0-23.174,10.533-23.174,23.365v10.437h-3.543
			c-12.217,0-22.12-9.903-22.12-22.12c0-12.217,9.903-22.12,22.12-22.12h26.717c12.746,0,23.078-10.333,23.078-23.078
			c0-12.746-10.333-23.078-23.078-23.078h-26.717c-37.708,0-68.277,30.568-68.277,68.277c0,37.708,30.569,68.277,68.277,68.277
			h26.717c13.023,0,23.365-10.533,23.365-23.365v-33.229C1134.844,538.851,1124.502,528.317,1111.479,528.317z"/>
	</g>
</g>
</svg>
